<?xml version="1.0" standalone="no"?>
<!DOCTYPE svg PUBLIC "-//W3C//DTD SVG 20010904//EN"
 "http://www.w3.org/TR/2001/REC-SVG-20010904/DTD/svg10.dtd">
<svg version="1.0" xmlns="http://www.w3.org/2000/svg"
 width="589.000000pt" height="204.000000pt" viewBox="0 0 589.000000 204.000000"
 preserveAspectRatio="xMidYMid meet">

<g transform="translate(0.000000,204.000000) scale(0.100000,-0.100000)"
fill="#000000" stroke="none">
<path d="M3343 1760 c-12 -5 -26 -18 -32 -29 -7 -13 -11 -183 -11 -514 0 -557
1 -571 69 -638 41 -41 81 -55 188 -65 68 -6 73 -5 97 19 22 22 26 35 26 80 0
73 -19 95 -88 106 -29 4 -59 14 -65 20 -9 9 -13 141 -17 497 l-5 486 -28 24
c-30 25 -90 32 -134 14z"/>
<path d="M843 1706 l-28 -24 -5 -414 c-5 -435 -7 -446 -53 -496 -35 -38 -72
-52 -137 -52 -70 0 -109 17 -184 79 -26 23 -56 41 -66 41 -28 0 -81 -42 -104
-82 l-21 -37 20 -37 c22 -42 117 -116 183 -145 70 -30 158 -42 232 -30 138 23
243 101 303 229 l32 67 3 441 3 442 -27 21 c-39 31 -114 29 -151 -3z"/>
<path d="M2228 1720 c-34 -21 -38 -76 -38 -603 0 -584 -1 -578 67 -596 47 -13
496 -15 574 -2 121 20 220 95 274 206 26 54 29 70 30 160 0 87 -3 107 -26 155
-14 31 -40 72 -57 92 l-32 36 35 57 c38 64 50 120 42 205 -10 110 -81 215
-182 268 l-50 27 -310 2 c-199 2 -316 -1 -327 -7z m599 -213 c44 -23 63 -64
63 -132 0 -102 -22 -118 -171 -125 -131 -6 -149 -17 -149 -92 0 -72 21 -88
114 -88 112 0 176 -15 211 -50 29 -29 30 -34 30 -114 0 -92 -11 -117 -69 -160
-25 -19 -44 -21 -242 -24 l-214 -3 0 399 c0 219 3 402 8 406 4 4 93 6 197 4
156 -3 196 -7 222 -21z"/>
<path d="M4138 1379 c-133 -19 -261 -116 -325 -247 -37 -75 -38 -78 -38 -191
0 -112 1 -118 34 -184 87 -174 290 -281 468 -248 243 45 403 265 364 502 -40
244 -257 403 -503 368z m146 -211 c55 -17 131 -91 145 -143 27 -98 -3 -204
-73 -262 -104 -85 -261 -64 -340 45 -27 39 -31 53 -34 122 -4 71 -1 84 24 130
54 100 163 142 278 108z"/>
<path d="M1475 1356 c-205 -65 -334 -276 -296 -482 42 -231 248 -391 456 -353
73 13 109 31 158 77 l37 36 0 -41 c0 -32 5 -46 22 -57 33 -23 120 -21 149 3
l24 19 0 387 0 387 -24 19 c-16 13 -39 19 -77 19 -66 0 -94 -22 -94 -76 l0
-36 -42 36 c-80 69 -210 95 -313 62z m203 -202 c150 -62 183 -263 61 -382 -90
-88 -251 -63 -326 49 -32 49 -43 144 -23 205 16 47 88 120 132 133 51 14 115
13 156 -5z"/>
<path d="M5033 1355 c-166 -51 -283 -219 -283 -405 0 -157 93 -311 228 -377
51 -25 67 -28 162 -28 114 0 139 8 198 63 l32 30 0 -61 c0 -201 -186 -292
-358 -176 -33 21 -70 39 -82 39 -13 0 -37 -15 -56 -36 -27 -28 -34 -44 -34
-74 0 -33 6 -44 42 -74 81 -69 230 -106 346 -86 124 21 216 76 277 165 63 93
65 112 65 577 0 487 6 458 -99 458 -52 0 -62 -3 -80 -26 -12 -15 -21 -38 -21
-51 0 -24 -1 -24 -42 11 -71 61 -195 83 -295 51z m210 -198 c18 -8 48 -32 69
-54 89 -100 62 -285 -52 -343 -131 -67 -270 0 -300 144 -20 98 16 189 94 240
31 20 53 26 98 26 32 0 73 -6 91 -13z"/>
</g>
</svg>
